<svg width="64" height="65" viewBox="0 0 64 65" fill="none" xmlns="http://www.w3.org/2000/svg">
<g filter="url(#filter0_d_1482_19877)">
<rect x="10" y="8.5" width="44" height="44" rx="22" fill="#B5955E" shape-rendering="crispEdges"/>
<path d="M38 26.5C38 24.9087 37.3679 23.3826 36.2426 22.2574C35.1174 21.1321 33.5913 20.5 32 20.5C30.4087 20.5 28.8826 21.1321 27.7574 22.2574C26.6321 23.3826 26 24.9087 26 26.5C26 33.5 23 35.5 23 35.5H41C41 35.5 38 33.5 38 26.5Z" stroke="white" stroke-width="1.5" stroke-linecap="round" stroke-linejoin="round"/>
<path d="M33.7295 39.5C33.5537 39.8031 33.3014 40.0547 32.9978 40.2295C32.6941 40.4044 32.3499 40.4965 31.9995 40.4965C31.6492 40.4965 31.3049 40.4044 31.0013 40.2295C30.6977 40.0547 30.4453 39.8031 30.2695 39.5" stroke="white" stroke-width="1.5" stroke-linecap="round" stroke-linejoin="round"/>
</g>
<defs>
<filter id="filter0_d_1482_19877" x="0" y="0.5" width="64" height="64" filterUnits="userSpaceOnUse" color-interpolation-filters="sRGB">
<feFlood flood-opacity="0" result="BackgroundImageFix"/>
<feColorMatrix in="SourceAlpha" type="matrix" values="0 0 0 0 0 0 0 0 0 0 0 0 0 0 0 0 0 0 127 0" result="hardAlpha"/>
<feOffset dy="2"/>
<feGaussianBlur stdDeviation="5"/>
<feComposite in2="hardAlpha" operator="out"/>
<feColorMatrix type="matrix" values="0 0 0 0 0.130583 0 0 0 0 0.129324 0 0 0 0 0.129324 0 0 0 0.1 0"/>
<feBlend mode="normal" in2="BackgroundImageFix" result="effect1_dropShadow_1482_19877"/>
<feBlend mode="normal" in="SourceGraphic" in2="effect1_dropShadow_1482_19877" result="shape"/>
</filter>
</defs>
</svg>
