<svg width="24" height="24" viewBox="0 0 24 24" fill="none" xmlns="http://www.w3.org/2000/svg">
<path d="M12 20C16.4184 20 20 16.4184 20 12C20 7.5816 16.4184 4 12 4C7.5816 4 4 7.5816 4 12C4 16.4184 7.5816 20 12 20Z" stroke="#707070" stroke-width="1.2" stroke-linecap="round" stroke-linejoin="round"/>
<path d="M14.3996 9.1998C13.8516 8.6518 12.8868 8.271 11.9996 8.247M11.9996 8.247C10.9436 8.2182 9.99961 8.6958 9.99961 9.9998C9.99961 12.3998 14.3996 11.1998 14.3996 13.5998C14.3996 14.9686 13.2284 15.5566 11.9996 15.5126M11.9996 8.247V6.7998M9.59961 14.3998C10.1148 15.0878 11.074 15.4798 11.9996 15.5126M11.9996 15.5126V17.1998" stroke="#707070" stroke-width="1.2" stroke-linecap="round" stroke-linejoin="round"/>
</svg>
