<svg width="20" height="20" viewBox="0 0 20 20" fill="none" xmlns="http://www.w3.org/2000/svg">
<path d="M15.1851 9.16667H4.81473C3.99653 9.16667 3.33325 9.91286 3.33325 10.8333V16.6667C3.33325 17.5871 3.99653 18.3333 4.81473 18.3333H15.1851C16.0033 18.3333 16.6666 17.5871 16.6666 16.6667V10.8333C16.6666 9.91286 16.0033 9.16667 15.1851 9.16667Z" stroke="#ED8559" stroke-width="1.5" stroke-linecap="round" stroke-linejoin="round"/>
<ellipse cx="10.0001" cy="14.1667" rx="0.833333" ry="0.833333" fill="#ED8559"/>
<path d="M5.83325 9.16667V5.83334C5.83222 4.80005 6.21515 3.80323 6.90773 3.03639C7.60031 2.26956 8.55311 1.78742 9.58117 1.68358C10.6092 1.57974 11.6392 1.86159 12.4711 2.47443C13.3031 3.08728 13.8776 3.98738 14.0833 5.00001" stroke="#ED8559" stroke-width="1.5" stroke-linecap="round" stroke-linejoin="round"/>
</svg>
